<svg width="40" height="35" viewBox="0 0 40 35" fill="none" xmlns="http://www.w3.org/2000/svg">
<path fill-rule="evenodd" clip-rule="evenodd" d="M18.9911 0.02282C23.1123 -0.261217 27.0419 2.1458 29.9916 5.03798C32.6888 7.68255 32.9043 11.7071 34.4313 15.162C36.2048 19.1744 41.3825 22.8611 39.6506 26.8916C37.8691 31.0375 31.6301 30.2735 27.3387 31.6684C24.5539 32.5736 21.8962 33.2395 18.9911 33.6069C15.5861 34.0376 11.9567 35.6561 8.95411 33.9936C5.87896 32.2909 5.11815 28.3645 3.7079 25.1447C2.11863 21.5162 -0.85423 17.8932 0.23395 14.0843C1.32592 10.2622 5.85911 8.86635 9.0397 6.48198C12.2833 4.05039 14.9469 0.301548 18.9911 0.02282Z" fill="url(#paint0_linear_3465_847)"/>
<path d="M17.7318 26.4306C17.5796 26.4977 17.4157 26.5618 17.2401 26.6228C17.0704 26.6777 16.8948 26.7204 16.7133 26.7509C16.5377 26.7814 16.365 26.7966 16.1953 26.7966C15.9436 26.7966 15.7124 26.7539 15.5017 26.6685C15.2909 26.577 15.1212 26.4306 14.9924 26.2294C14.8695 26.022 14.808 25.7444 14.808 25.3968V23.1918H14.2373V21.8834H14.808V20.3738H16.4763V21.8834H17.3806V23.1918H16.4763V24.7838C16.4763 24.9423 16.5084 25.0552 16.5728 25.1223C16.6372 25.1833 16.725 25.2138 16.8362 25.2138C16.9182 25.2138 17.0118 25.1985 17.1172 25.168C17.2226 25.1375 17.3279 25.1009 17.4333 25.0582L17.7318 26.4306Z" fill="white"/>
<path d="M20.4273 26.7875C20.0234 26.7875 19.6634 26.7234 19.3473 26.5953C19.0312 26.4611 18.7649 26.2812 18.5483 26.0555C18.3376 25.8298 18.1766 25.5706 18.0654 25.2778C17.9542 24.985 17.8986 24.677 17.8986 24.3537C17.8986 23.8902 17.9952 23.4663 18.1883 23.082C18.3815 22.6916 18.6654 22.3805 19.04 22.1487C19.4146 21.9109 19.877 21.7919 20.4273 21.7919C20.9775 21.7919 21.4399 21.9078 21.8145 22.1396C22.1892 22.3714 22.4731 22.6764 22.6662 23.0545C22.8594 23.4327 22.956 23.8444 22.956 24.2897C22.956 24.3812 22.9501 24.4757 22.9384 24.5733C22.9325 24.6648 22.9238 24.7472 22.9121 24.8204H19.6722C19.6839 24.9911 19.7278 25.1314 19.8039 25.2412C19.8858 25.3449 19.9853 25.4212 20.1024 25.47C20.2253 25.5188 20.3512 25.5432 20.4799 25.5432C20.6614 25.5432 20.8312 25.5005 20.9892 25.4151C21.1531 25.3297 21.2614 25.2107 21.3141 25.0582L22.7277 25.4791C22.6048 25.7353 22.4321 25.961 22.2096 26.1562C21.9931 26.3513 21.7355 26.5069 21.437 26.6228C21.1385 26.7326 20.8019 26.7875 20.4273 26.7875ZM19.6371 23.7773H21.1648C21.1472 23.6187 21.1033 23.4845 21.0331 23.3748C20.9687 23.265 20.8809 23.1796 20.7697 23.1186C20.6643 23.0576 20.5414 23.0271 20.4009 23.0271C20.2604 23.0271 20.1346 23.0576 20.0234 23.1186C19.918 23.1796 19.8302 23.265 19.76 23.3748C19.6956 23.4845 19.6546 23.6187 19.6371 23.7773Z" fill="white"/>
<path d="M23.4685 20.0169H25.1367V24.7838C25.1367 24.9606 25.1719 25.0979 25.2421 25.1955C25.3182 25.287 25.4265 25.3327 25.567 25.3327C25.6372 25.3327 25.7133 25.3205 25.7953 25.2961C25.8772 25.2717 25.9533 25.2382 26.0235 25.1955L26.2343 26.4764C26.0352 26.574 25.8099 26.6502 25.5582 26.7051C25.3123 26.76 25.0782 26.7875 24.8558 26.7875C24.4109 26.7875 24.0685 26.6685 23.8285 26.4306C23.5885 26.1867 23.4685 25.842 23.4685 25.3968V20.0169Z" fill="white"/>
<path d="M26.3964 25.6712L28.5037 23.0728H26.5281V21.8834H30.2421V22.9081L28.1437 25.5066H30.3212V26.696H26.3964V25.6712Z" fill="white"/>
<path d="M30.9634 26.696V21.8834H32.6316V26.696H30.9634ZM30.9634 21.4808V20.0169H32.6316V21.4808H30.9634Z" fill="white"/>
<path d="M36.6102 23.3656C36.2882 23.3656 35.9956 23.4022 35.7322 23.4754C35.4688 23.5486 35.2727 23.6706 35.1439 23.8414V26.696H33.4757V21.8834H35.0034V22.7983C35.1673 22.4751 35.3722 22.228 35.618 22.0573C35.8639 21.8804 36.1243 21.7919 36.3995 21.7919C36.4638 21.7919 36.5077 21.7919 36.5312 21.7919C36.5604 21.7919 36.5868 21.795 36.6102 21.8011V23.3656Z" fill="white"/>
<defs>
<linearGradient id="paint0_linear_3465_847" x1="20" y1="0" x2="20" y2="34.7283" gradientUnits="userSpaceOnUse">
<stop stop-color="#A23DDF"/>
<stop offset="1" stop-color="#F4AD43"/>
</linearGradient>
</defs>
</svg>
